<svg width="257" height="257" viewBox="0 0 257 257" fill="none" xmlns="http://www.w3.org/2000/svg">
<path d="M128.5 0.000244141L128.525 128.374L177.676 9.78168L128.572 128.394L219.363 37.6371L128.607 128.429L247.219 79.3252L128.627 128.475L257 128.5L128.627 128.525L247.219 177.675L128.607 128.572L219.363 219.363L128.572 128.607L177.676 247.219L128.525 128.627L128.5 257L128.476 128.627L79.3254 247.219L128.429 128.607L37.6373 219.363L128.394 128.572L9.78193 177.675L128.374 128.525L0.000488281 128.5L128.374 128.475L9.78193 79.3252L128.394 128.429L37.6373 37.6371L128.429 128.394L79.3254 9.78168L128.476 128.374L128.5 0.000244141Z" stroke="#4F4F4F" stroke-width="3"/>
</svg>
