<svg width="151" height="159" viewBox="0 0 151 159" fill="none" xmlns="http://www.w3.org/2000/svg">
<path d="M71.4601 3.27104C72.2685 -1.09019 78.5176 -1.09019 79.3261 3.27104L85.4997 36.5743C86.078 39.694 89.8844 40.9308 92.186 38.7468L116.756 15.4327C119.973 12.3796 125.029 16.0527 123.119 20.0562L108.539 50.6279C107.173 53.4917 109.525 56.7296 112.671 56.3156L146.252 51.8958C150.65 51.317 152.581 57.2602 148.683 59.3767L118.917 75.5395C116.129 77.0536 116.129 81.0558 118.917 82.5699L148.683 98.7326C152.581 100.849 150.65 106.792 146.252 106.214L112.671 101.794C109.525 101.38 107.173 104.618 108.539 107.482L123.119 138.053C125.029 142.057 119.973 145.73 116.756 142.677L92.186 119.363C89.8844 117.179 86.078 118.415 85.4997 121.535L79.3261 154.838C78.5176 159.2 72.2685 159.2 71.4601 154.838L65.2865 121.535C64.7081 118.415 60.9017 117.179 58.6002 119.363L34.0304 142.677C30.8129 145.73 25.7573 142.057 27.6667 138.053L42.2473 107.482C43.6132 104.618 41.2607 101.38 38.1149 101.794L4.53389 106.214C0.136292 106.792 -1.79477 100.849 2.10317 98.7326L31.8687 82.5699C34.657 81.0558 34.657 77.0536 31.8687 75.5395L2.10317 59.3767C-1.79478 57.2602 0.136293 51.317 4.53389 51.8958L38.1149 56.3156C41.2607 56.7296 43.6132 53.4917 42.2473 50.6279L27.6667 20.0562C25.7573 16.0527 30.8129 12.3796 34.0304 15.4327L58.6002 38.7468C60.9017 40.9308 64.7081 39.694 65.2865 36.5743L71.4601 3.27104Z" fill="#FFDE81"/>
</svg>
